P1
# CREATOR: GIMP PNM Filter Version 1.1
48 32
0000000000111111110000000011100001111000000000000000000001111111111000
0000111000111100000000000000000000111000000111000000111001111000000000
0000000000001110000001110000001110111100000000000000000000000110000001
1000000011111110000000000000000000000000111111110000000011111000000000
0000000000000000011111111110000000111111000000000000000000000000111000
0001110000001111111000000000000000000000001110000001110000001110111100
0000000000000000000011100000011100000011100111100000000000000000000011
1000000111000000111000111100000000000000000000011111111110000000111000
0111100000000000000000000011111111000000001110000011110000000000000000
0000000000000000000000000000000000000000000000000000000000000000000000
0000000000000000000000000000000000000000000000000000000000000000000000
0000000000000000000000000000000000000000000000011111110001111110001111
1110111111110011111110000111111110111111110111111110111111110111111111
0001100001101100001101100000100001100001100000010001100001101100001101
1000000000011000011000000000011000011011000011011000000000011000011000
0000000111111100110000110111111110000110000110000000000111111100111111
1101111111100001100001100000000001100001101111111100000001100001100001
1000000000011000011011000011000000011000011000011000000000011000011011
0000110100000110000110000110000001000111111110110000110111111110111111
1101111111110001111111001100001101111111001111111100111111100000000000
0000000000000000000000000000000000000000000000000000000000000000000000
000000000000000000000000000000000000000000000000000000000000000000