P1
# CREATOR: GIMP PNM Filter Version 1.1
48 32
1111111111111111111111111111111111111111111111111100000110000011110000
0110000011110000011000001110100001100001011010000110000101101000011000
0101100100011000100110010001100010011001000110001001100010011001000110
0010011001000110001001100100011000010110100001100001011010000110000101
1010000110000011110000011000001111000001100000111100000111111111111111
1111111111111111111111111111111111111111111111111111111111111111111111
1111111111111000000110000001100000011000000110000001100000011000000110
0000011000000110000001100000011000000110011001100110011001100110011001
1001100110011001100110011001100110011001100110011001100110011001100000
0110000001100000011000000110000001100000011000000110000001100000011000
0001100000011000000111111111111111111111111111111111111111111111111111
1111111111111111111111111111111111111111111111100000011000000110000001
1000000110000001100000011011110110111101101111011011110110111101101111
0110100101101001011010010110100101101001011010010110100101101001011010
0101101001011010010110100101101111011011110110111101101111011011110110
1111011000000110000001100000011000000110000001100000011111111111111111
1111111111111111111111111111111111111111111111111111111111111111111111
1111111111100000011000000110000001100000011000000110000001111111011011
1111111111011011111111111101101111111010010110100101101001011010010110
1001011010010110100101101001011010010110100101101001011010010110111111
1111110110111111111111011011111111111101100000011000000110000001100000
011000000110000001111111111111111111111111111111111111111111111111