P1
# CREATOR: GIMP PNM Filter Version 1.1
48 32
0111111111000111111111100011111111000011111111101111111111000111111111
1000111111110000111111111111000000000001100000000001100000011000000000
0011110000000000011000000000011000000110000000000011110000000000011000
0000000110000001100000000000111100000000000110000000000110000001100000
0000001111000000000001100000000001100000011000000000001111000000000001
1000000000011000000110000000000011111111111100011111111100011000000110
0011111111111111111111100011111111100110000001100111111111101100000001
1000000000011001100000011001100000000011000000011000000000011001100000
0110011000000000110000000110000000000110011000000110011000000000110000
0001100000000001100110000001100110000000001100000001100000000001100110
0000011001100000000011000000011000000000011001100000011001100000000011
1111111110011111111110001111111100011111111111011111111100011111111100
0011111111000011111111110000000000000000000000000000000000000000000000
0000000000000000000000000000000000000000000000000000000000000000000000
0000000000000000000000000000000000000000000000000000000000000000000000
0000000000000000000000000000000000000000000000000000000000000000000000
0000000000000000000000000000000000000000000000000000000000000000000000
0000000000000000000000000000000000000000000000000000000000000000000000
0000000000000000000000000000000000000000000000000000000000000000000000
0000000000000000000000000000000000000000000000000000000000000000000000
0000000000000000000000000000000000000000000000000000000000000000000000
000000000000000000000000000000000000000000000000000000000000000000