P1
# CREATOR: GIMP PNM Filter Version 1.1
48 32
0000000011111110000000000111111000000000111111100000000011111111000000
0011111111000000001111111100000000110000110000000011000011000000001100
0011000000001100001100000000110000110000000011000011000000001100001100
0000001100001100000000110000110000000011111111000000001100000000000000
1111111000000000111111100000000011000000000000001111111000000000111100
0000000000110001110000000011000011000000001101100000000000110000110000
0000110000110000000011001100000000001100001100000000110000110000000011
0001100000000011111111000000001111111100000000110000110000000001111110
0000000011111110000000000000000000000000000000000000000000000000000000
0000000000000000000000000000000000000000000111111001111100110000000111
1100110001101111111011111110111111101100000011111110110001101111111111
0000001100011011000000110001101100011011000011110000001100011011000000
1100011011000110110000111100000011000110110000001100011011000110110000
1111000000110001101100000011000110110001101111111111000000110001101100
0000110001101100011011111110110000001100011011000000110001101100011011
1100001100000011000110110000001100011011000110110110001100000011000110
1100000011000110110001101100110011111110111111101111111011111110111111
1011000110011111100111110011111110011111000111110011000011000000000000
0000000000000000000000000000000000000000000000000000000000000000000000
0000000000000000000000000000000000000000000000000000000000000000000000
0000000000000000000000000000000000000000000000000000000000000000000000
000000000000000000000000000000000000000000000000000000000000000000