P1
# CREATOR: GIMP PNM Filter Version 1.1
48 32
0111100000000000000000000000000000000000000000001000010000000000000000
0000000000000000000000000010000000111100100000101111001000101000101011
1110100000010000101100011010001010001010010010001000100000010000101010
1010100010100010101000100010001000000100001010101010100010100010110000
1000100010000001000010100100101000101000101100001000100010000001000010
1001001011110010001010100010001000100000010000101001001010000010001010
0100100010001000000011110010000010100000011100100010100010001000000000
0000000000001000000000000000000000000001111111111111111111111111111111
1111111111111111000000000000000000000000000000000000000000000000000000
0000000000000000000000000000000000000000000000111000111011100011100011
1000111111100001110000001110001110111001110001111001111111110011110000
0011100011101110111000111110011100011101111100000011100011101111110000
0011100111000111000111000000111000111011111000000011100111000111000111
0000001110001110111111000000111001110001110001110000001110001110111011
1000001110011100011100011100000011100011101110011100001110011100011100
0111000000111111111011100011100011100111111111000111000000011111110011
1000011001111100111111100011111000000000000000000000000000000000000000
0000000000000000000000000000000000000000000000000000000000000000000000
0000000000000000000000000000000000000000000000000000000000000000000000
0000000000000000000000000000000000000000000000000000000000000000000000
0000000000000000000000000000000000000000000000000000000000000000000000
000000000000000000000000000000000000000000000000000000000000000000
